<svg width="1851" height="932" viewBox="0 0 1851 932" fill="none" xmlns="http://www.w3.org/2000/svg">
<g id="Group 915">
<mask id="mask0_301_3" style="mask-type:alpha" maskUnits="userSpaceOnUse" x="-69" y="-28" width="1920" height="960">
<rect id="Rectangle 17" x="-69" y="-28" width="1920" height="960" fill="#5D69F6"/>
</mask>
<g mask="url(#mask0_301_3)">
<path id="Vector 6" d="M488.693 575.12L487.101 574.967L488.693 575.12ZM275.817 409.877L275.085 408.454L275.817 409.877ZM301.861 619.23L303.02 620.334L301.861 619.23ZM260.381 526.468C259.52 526.666 258.983 527.525 259.181 528.386C259.379 529.247 260.238 529.785 261.099 529.586L260.381 526.468ZM-86.8849 759.168C-86.0132 759.313 -85.1889 758.724 -85.0437 757.852C-84.8985 756.981 -85.4873 756.156 -86.359 756.011L-86.8849 759.168ZM-76.2033 757.524C-77.0792 757.408 -77.8835 758.024 -77.9997 758.9C-78.1159 759.776 -77.4999 760.58 -76.6239 760.696L-76.2033 757.524ZM-75.8054 760.804C-74.9291 760.918 -74.1263 760.3 -74.0122 759.424C-73.8981 758.548 -74.5159 757.745 -75.3922 757.631L-75.8054 760.804ZM-65.1044 758.824C-65.9834 758.734 -66.7692 759.373 -66.8595 760.252C-66.9498 761.132 -66.3104 761.917 -65.4314 762.008L-65.1044 758.824ZM-64.6317 762.089C-63.7525 762.178 -62.9679 761.537 -62.8793 760.658C-62.7906 759.778 -63.4315 758.994 -64.3107 758.905L-64.6317 762.089ZM-53.8488 759.835C-54.7298 759.767 -55.4995 760.426 -55.5679 761.307C-55.6363 762.188 -54.9775 762.957 -54.0965 763.026L-53.8488 759.835ZM-53.313 763.086C-52.4319 763.153 -51.6633 762.493 -51.5963 761.612C-51.5293 760.731 -52.1893 759.962 -53.0704 759.895L-53.313 763.086ZM-42.7113 760.579C-43.5936 760.529 -44.3492 761.204 -44.399 762.086C-44.4488 762.969 -43.774 763.724 -42.8917 763.774L-42.7113 760.579ZM-42.0723 763.82C-41.19 763.868 -40.4354 763.192 -40.3868 762.31C-40.3383 761.428 -41.0142 760.673 -41.8965 760.625L-42.0723 763.82ZM-31.5288 761.104C-32.4119 761.071 -33.1548 761.76 -33.1882 762.643C-33.2216 763.526 -32.5329 764.269 -31.6498 764.302L-31.5288 761.104ZM-30.8501 764.332C-29.967 764.364 -29.225 763.674 -29.1927 762.791C-29.1604 761.908 -29.85 761.166 -30.7331 761.134L-30.8501 764.332ZM-20.2031 761.436C-21.0866 761.417 -21.8178 762.118 -21.8364 763.002C-21.855 763.885 -21.1538 764.617 -20.2704 764.635L-20.2031 761.436ZM-19.4597 764.652C-18.5762 764.669 -17.8457 763.967 -17.8282 763.084C-17.8106 762.2 -18.5125 761.47 -19.396 761.452L-19.4597 764.652ZM-9.09281 761.585C-9.97645 761.58 -10.6971 762.292 -10.7025 763.176C-10.7079 764.059 -9.99593 764.78 -9.1123 764.785L-9.09281 761.585ZM-8.30479 764.79C-7.42114 764.794 -6.70119 764.082 -6.69672 763.198C-6.69225 762.314 -7.40495 761.594 -8.2886 761.59L-8.30479 764.79ZM2.20659 761.574C1.32296 761.581 0.612282 762.303 0.61924 763.187C0.626205 764.07 1.34817 764.781 2.2318 764.774L2.20659 761.574ZM3.02361 764.767C3.90723 764.76 4.61723 764.037 4.60944 763.153C4.60165 762.27 3.87903 761.56 2.99541 761.568L3.02361 764.767ZM13.3729 761.414C12.4894 761.432 11.788 762.163 11.8063 763.047C11.8246 763.93 12.5557 764.631 13.4391 764.613L13.3729 761.414ZM14.2495 764.596C15.1329 764.577 15.8336 763.845 15.8145 762.962C15.7954 762.078 15.0638 761.378 14.1803 761.397L14.2495 764.596ZM24.6314 761.111C23.7482 761.14 23.0558 761.88 23.0848 762.763C23.1138 763.646 23.8533 764.339 24.7365 764.31L24.6314 761.111ZM25.5321 764.283C26.4153 764.253 27.1071 763.513 27.0773 762.63C27.0475 761.747 26.3075 761.055 25.4243 761.085L25.5321 764.283ZM35.83 760.678C34.9472 760.718 34.2633 761.465 34.3025 762.348C34.3416 763.231 35.089 763.914 35.9718 763.875L35.83 760.678ZM36.782 763.839C37.6648 763.799 38.3481 763.051 38.3082 762.168C38.2684 761.286 37.5204 760.602 36.6377 760.642L36.782 763.839ZM47.0606 760.118C46.1783 760.167 45.5026 760.922 45.5515 761.804C45.6003 762.686 46.3551 763.362 47.2374 763.313L47.0606 760.118ZM48.0345 763.269C48.9168 763.219 49.5919 762.464 49.5424 761.582C49.4929 760.699 48.7375 760.024 47.8552 760.074L48.0345 763.269ZM58.262 759.439C57.3802 759.497 56.7126 760.259 56.7707 761.14C56.8288 762.022 57.5907 762.69 58.4725 762.632L58.262 759.439ZM59.281 762.578C60.1627 762.519 60.8298 761.757 60.771 760.875C60.7123 759.993 59.9498 759.326 59.0681 759.385L59.281 762.578ZM69.4737 758.642C68.5926 758.709 67.9327 759.478 67.9998 760.359C68.067 761.24 68.8356 761.9 69.7168 761.832L69.4737 758.642ZM70.5139 761.771C71.395 761.704 72.0543 760.935 71.9866 760.053C71.9188 759.172 71.1496 758.513 70.2686 758.581L70.5139 761.771ZM80.6609 757.733C79.7805 757.809 79.1283 758.584 79.2042 759.465C79.2801 760.345 80.0553 760.997 80.9357 760.921L80.6609 757.733ZM81.7416 760.852C82.622 760.775 83.2736 760 83.1971 759.119C83.1207 758.239 82.345 757.587 81.4646 757.664L81.7416 760.852ZM91.8575 756.713C90.9779 756.798 90.3333 757.579 90.4177 758.459C90.5021 759.339 91.2836 759.983 92.1633 759.899L91.8575 756.713ZM92.9598 759.822C93.8394 759.737 94.4834 758.955 94.3984 758.075C94.3134 757.196 93.5314 756.552 92.6518 756.637L92.9598 759.822ZM103.022 755.588C102.143 755.68 101.506 756.468 101.599 757.347C101.691 758.226 102.479 758.863 103.358 758.77L103.022 755.588ZM104.161 758.685C105.04 758.591 105.676 757.803 105.583 756.925C105.489 756.046 104.701 755.409 103.822 755.503L104.161 758.685ZM114.202 754.353C113.324 754.454 112.694 755.247 112.795 756.125C112.897 757.003 113.69 757.633 114.568 757.532L114.202 754.353ZM115.364 757.44C116.241 757.338 116.871 756.544 116.769 755.666C116.667 754.788 115.873 754.159 114.995 754.261L115.364 757.44ZM125.339 753.016C124.462 753.125 123.84 753.925 123.949 754.802C124.059 755.679 124.858 756.301 125.735 756.191L125.339 753.016ZM126.535 756.091C127.412 755.981 128.033 755.181 127.923 754.305C127.813 753.428 127.013 752.806 126.136 752.916L126.535 756.091ZM136.497 751.57C135.621 751.688 135.006 752.493 135.124 753.369C135.242 754.245 136.047 754.859 136.923 754.742L136.497 751.57ZM137.717 754.635C138.593 754.517 139.207 753.711 139.089 752.835C138.971 751.959 138.165 751.345 137.289 751.464L137.717 754.635ZM147.605 750.025C146.731 750.151 146.124 750.962 146.25 751.836C146.376 752.711 147.187 753.318 148.061 753.192L147.605 750.025ZM148.858 753.077C149.733 752.951 150.339 752.139 150.213 751.265C150.086 750.39 149.275 749.784 148.4 749.91L148.858 753.077ZM158.732 748.37C157.859 748.504 157.26 749.321 157.394 750.194C157.528 751.067 158.345 751.667 159.218 751.532L158.732 748.37ZM160.012 751.41C160.885 751.276 161.484 750.458 161.349 749.585C161.214 748.712 160.397 748.113 159.524 748.248L160.012 751.41ZM169.813 746.613C168.941 746.756 168.349 747.578 168.492 748.451C168.634 749.323 169.457 749.914 170.329 749.772L169.813 746.613ZM171.123 749.642C171.995 749.498 172.586 748.676 172.443 747.804C172.3 746.932 171.477 746.341 170.605 746.484L171.123 749.642ZM180.898 744.747C180.027 744.898 179.443 745.726 179.594 746.597C179.745 747.468 180.573 748.051 181.444 747.9L180.898 744.747ZM182.236 747.763C183.107 747.611 183.69 746.782 183.538 745.912C183.387 745.041 182.558 744.458 181.687 744.61L182.236 747.763ZM191.951 742.775C191.082 742.935 190.506 743.768 190.666 744.638C190.825 745.507 191.659 746.082 192.528 745.922L191.951 742.775ZM193.319 745.777C194.188 745.617 194.763 744.783 194.603 743.914C194.443 743.045 193.609 742.47 192.74 742.63L193.319 745.777ZM202.983 740.693C202.116 740.861 201.549 741.701 201.717 742.568C201.886 743.436 202.725 744.003 203.593 743.835L202.983 740.693ZM204.382 743.681C205.249 743.512 205.816 742.672 205.647 741.805C205.478 740.938 204.638 740.371 203.77 740.54L204.382 743.681ZM214.006 738.497C213.14 738.674 212.582 739.519 212.759 740.385C212.936 741.251 213.781 741.809 214.647 741.632L214.006 738.497ZM215.436 741.47C216.301 741.292 216.859 740.446 216.681 739.581C216.503 738.715 215.657 738.158 214.792 738.336L215.436 741.47ZM224.986 736.189C224.123 736.375 223.573 737.227 223.76 738.09C223.946 738.954 224.797 739.503 225.661 739.317L224.986 736.189ZM226.446 739.147C227.31 738.96 227.858 738.109 227.671 737.245C227.484 736.381 226.632 735.833 225.769 736.02L226.446 739.147ZM235.962 733.759C235.101 733.954 234.561 734.812 234.757 735.673C234.952 736.535 235.81 737.075 236.671 736.879L235.962 733.759ZM237.457 736.7C238.318 736.504 238.857 735.646 238.661 734.785C238.465 733.923 237.607 733.384 236.745 733.581L237.457 736.7ZM246.889 731.212C246.03 731.417 245.5 732.28 245.705 733.14C245.911 733.999 246.774 734.529 247.633 734.324L246.889 731.212ZM248.413 734.137C249.273 733.931 249.802 733.067 249.596 732.208C249.39 731.349 248.526 730.819 247.667 731.025L248.413 734.137ZM257.803 728.534C256.946 728.75 256.426 729.619 256.642 730.476C256.858 731.333 257.727 731.853 258.584 731.638L257.803 728.534ZM259.366 731.44C260.223 731.224 260.742 730.354 260.526 729.497C260.31 728.641 259.44 728.122 258.583 728.338L259.366 731.44ZM268.67 725.73C267.816 725.956 267.307 726.832 267.533 727.686C267.759 728.54 268.635 729.05 269.489 728.823L268.67 725.73ZM270.264 728.618C271.118 728.391 271.626 727.515 271.399 726.661C271.173 725.807 270.296 725.298 269.442 725.525L270.264 728.618ZM279.507 722.788C278.655 723.025 278.157 723.907 278.394 724.759C278.631 725.61 279.514 726.108 280.365 725.871L279.507 722.788ZM281.143 725.654C281.994 725.416 282.492 724.533 282.254 723.682C282.016 722.831 281.133 722.334 280.282 722.572L281.143 725.654ZM290.304 719.704C289.456 719.953 288.97 720.841 289.218 721.689C289.466 722.537 290.355 723.023 291.203 722.775L290.304 719.704ZM291.972 722.549C292.82 722.3 293.305 721.411 293.056 720.563C292.807 719.715 291.917 719.23 291.07 719.479L291.972 722.549ZM301.046 716.474C300.202 716.735 299.728 717.63 299.989 718.475C300.249 719.319 301.145 719.793 301.989 719.532L301.046 716.474ZM302.763 719.293C303.607 719.032 304.08 718.135 303.818 717.291C303.557 716.447 302.661 715.975 301.817 716.236L302.763 719.293ZM311.756 713.083C310.916 713.356 310.456 714.259 310.729 715.099C311.002 715.939 311.905 716.399 312.745 716.126L311.756 713.083ZM313.507 715.878C314.347 715.604 314.806 714.701 314.532 713.861C314.258 713.021 313.355 712.562 312.515 712.836L313.507 715.878ZM322.388 709.534C321.552 709.821 321.107 710.73 321.393 711.566C321.68 712.402 322.59 712.848 323.426 712.561L322.388 709.534ZM324.193 712.298C325.028 712.01 325.473 711.1 325.185 710.264C324.898 709.428 323.987 708.984 323.152 709.272L324.193 712.298ZM332.985 705.801C332.154 706.102 331.724 707.019 332.025 707.85C332.325 708.681 333.243 709.111 334.074 708.81L332.985 705.801ZM334.826 708.537C335.657 708.235 336.085 707.317 335.784 706.487C335.482 705.656 334.564 705.228 333.733 705.53L334.826 708.537ZM343.486 701.892C342.66 702.208 342.247 703.133 342.563 703.958C342.879 704.784 343.804 705.196 344.63 704.881L343.486 701.892ZM345.388 704.59C346.213 704.273 346.625 703.347 346.308 702.522C345.99 701.697 345.065 701.286 344.24 701.603L345.388 704.59ZM353.93 697.777C353.111 698.109 352.716 699.042 353.048 699.861C353.381 700.68 354.314 701.074 355.132 700.742L353.93 697.777ZM355.873 700.441C356.691 700.107 357.084 699.174 356.751 698.355C356.418 697.537 355.484 697.144 354.666 697.477L355.873 700.441ZM364.274 693.453C363.463 693.802 363.088 694.743 363.438 695.555C363.787 696.367 364.729 696.741 365.54 696.391L364.274 693.453ZM366.286 696.069C367.097 695.719 367.47 694.777 367.119 693.966C366.768 693.155 365.826 692.782 365.015 693.133L366.286 696.069ZM374.507 688.904C373.704 689.273 373.352 690.223 373.72 691.026C374.089 691.829 375.038 692.181 375.842 691.813L374.507 688.904ZM376.565 691.48C377.368 691.11 377.719 690.16 377.349 689.357C376.979 688.555 376.029 688.204 375.226 688.574L376.565 691.48ZM384.657 684.093C383.863 684.482 383.535 685.441 383.924 686.234C384.313 687.028 385.271 687.356 386.065 686.967L384.657 684.093ZM386.793 686.609C387.585 686.219 387.912 685.26 387.521 684.467C387.131 683.674 386.172 683.348 385.379 683.739L386.793 686.609ZM394.595 679.052C393.813 679.463 393.512 680.43 393.923 681.213C394.334 681.995 395.301 682.296 396.083 681.885L394.595 679.052ZM396.784 681.516C397.566 681.103 397.865 680.135 397.452 679.354C397.04 678.573 396.072 678.274 395.29 678.686L396.784 681.516ZM404.486 673.66C403.717 674.095 403.447 675.072 403.882 675.841C404.318 676.61 405.294 676.88 406.063 676.445L404.486 673.66ZM406.765 676.046C407.533 675.609 407.801 674.632 407.364 673.864C406.926 673.096 405.95 672.828 405.182 673.265L406.765 676.046ZM414.058 668.024C413.304 668.486 413.068 669.471 413.53 670.224C413.991 670.978 414.977 671.214 415.73 670.752L414.058 668.024ZM416.432 670.321C417.184 669.857 417.418 668.871 416.954 668.119C416.49 667.367 415.504 667.133 414.752 667.597L416.432 670.321ZM423.535 661.959C422.801 662.451 422.604 663.444 423.095 664.179C423.586 664.913 424.58 665.111 425.314 664.619L423.535 661.959ZM425.979 664.174C426.712 663.68 426.906 662.686 426.413 661.953C425.919 661.22 424.925 661.025 424.192 661.519L425.979 664.174ZM432.683 655.548C431.971 656.071 431.819 657.073 432.342 657.785C432.866 658.496 433.867 658.649 434.579 658.125L432.683 655.548ZM435.236 657.641C435.946 657.115 436.095 656.113 435.569 655.403C435.043 654.693 434.041 654.544 433.331 655.07L435.236 657.641ZM441.45 648.758C440.765 649.317 440.664 650.325 441.223 651.01C441.782 651.694 442.79 651.796 443.474 651.237L441.45 648.758ZM444.085 650.736C444.767 650.174 444.865 649.166 444.303 648.484C443.741 647.801 442.733 647.704 442.051 648.265L444.085 650.736ZM449.939 641.404C449.289 642.003 449.247 643.015 449.846 643.665C450.445 644.315 451.457 644.357 452.107 643.758L449.939 641.404ZM452.697 643.212C453.344 642.611 453.382 641.598 452.78 640.951C452.178 640.303 451.166 640.266 450.519 640.868L452.697 643.212ZM457.866 633.602C457.258 634.244 457.286 635.256 457.927 635.864C458.569 636.472 459.581 636.445 460.189 635.803L457.866 633.602ZM460.75 635.208C461.355 634.563 461.322 633.551 460.677 632.946C460.033 632.342 459.02 632.374 458.416 633.019L460.75 635.208ZM465.15 625.3C464.594 625.987 464.701 626.995 465.388 627.55C466.075 628.106 467.083 627.999 467.638 627.312L465.15 625.3ZM468.158 626.665C468.709 625.974 468.596 624.968 467.906 624.416C467.215 623.865 466.208 623.978 465.657 624.669L468.158 626.665ZM471.758 616.331C471.267 617.066 471.466 618.06 472.202 618.55C472.937 619.04 473.93 618.841 474.42 618.105L471.758 616.331ZM474.863 617.436C475.348 616.697 475.142 615.705 474.404 615.22C473.665 614.735 472.673 614.941 472.188 615.68L474.863 617.436ZM477.42 606.804C477.01 607.587 477.312 608.554 478.095 608.964C478.878 609.374 479.844 609.071 480.254 608.288L477.42 606.804ZM480.629 607.566C481.033 606.78 480.722 605.816 479.936 605.412C479.15 605.009 478.186 605.319 477.782 606.105L480.629 607.566ZM481.958 596.756C481.644 597.582 482.058 598.507 482.884 598.821C483.709 599.136 484.634 598.722 484.948 597.896L481.958 596.756ZM485.237 597.129C485.544 596.301 485.121 595.38 484.293 595.073C483.464 594.765 482.544 595.188 482.236 596.016L485.237 597.129ZM485.216 586.241C485.01 587.1 485.539 587.963 486.399 588.169C487.258 588.375 488.122 587.846 488.328 586.986L485.216 586.241ZM488.514 586.191C488.712 585.33 488.174 584.471 487.313 584.273C486.452 584.075 485.593 584.613 485.396 585.474L488.514 586.191ZM487.062 575.361C486.973 576.24 487.614 577.025 488.493 577.114C489.372 577.202 490.157 576.562 490.246 575.682L487.062 575.361ZM490.323 574.879C490.406 573.999 489.76 573.219 488.88 573.136C488 573.054 487.22 573.7 487.137 574.58L490.323 574.879ZM487.82 564.213C487.785 565.096 488.472 565.84 489.355 565.875C490.238 565.91 490.982 565.223 491.017 564.34L487.82 564.213ZM491.048 563.529C491.08 562.646 490.39 561.904 489.507 561.872C488.624 561.841 487.882 562.531 487.85 563.414L491.048 563.529ZM487.984 552.956C487.992 553.84 488.715 554.55 489.599 554.541C490.483 554.533 491.192 553.81 491.184 552.926L487.984 552.956ZM491.174 552.103C491.163 551.219 490.438 550.512 489.554 550.523C488.67 550.535 487.963 551.26 487.975 552.144L491.174 552.103ZM487.621 541.675C487.669 542.557 488.423 543.234 489.305 543.186C490.188 543.138 490.864 542.384 490.816 541.501L487.621 541.675ZM490.77 540.684C490.72 539.802 489.964 539.128 489.081 539.178C488.199 539.229 487.525 539.985 487.576 540.867L490.77 540.684ZM486.772 530.454C486.857 531.334 487.639 531.978 488.519 531.893C489.398 531.807 490.042 531.025 489.957 530.146L486.772 530.454ZM489.878 529.342C489.79 528.463 489.006 527.821 488.127 527.909C487.247 527.997 486.606 528.781 486.694 529.66L489.878 529.342ZM485.453 519.278C485.575 520.154 486.383 520.764 487.258 520.642C488.133 520.521 488.744 519.712 488.622 518.837L485.453 519.278ZM488.509 518.033C488.385 517.159 487.575 516.55 486.7 516.675C485.825 516.799 485.217 517.609 485.341 518.484L488.509 518.033ZM483.665 508.16C483.824 509.03 484.657 509.606 485.526 509.447C486.396 509.288 486.972 508.454 486.813 507.585L483.665 508.16ZM486.665 506.785C486.504 505.916 485.669 505.343 484.8 505.504C483.931 505.666 483.358 506.501 483.519 507.37L486.665 506.785ZM481.399 497.129C481.596 497.991 482.454 498.53 483.316 498.333C484.177 498.136 484.716 497.278 484.519 496.416L481.399 497.129ZM484.336 495.622C484.136 494.761 483.276 494.225 482.415 494.425C481.555 494.625 481.019 495.485 481.219 496.345L484.336 495.622ZM478.638 486.216C478.875 487.067 479.757 487.566 480.608 487.329C481.46 487.092 481.958 486.21 481.721 485.358L478.638 486.216ZM481.501 484.573C481.261 483.723 480.378 483.228 479.527 483.467C478.676 483.707 478.181 484.591 478.421 485.442L481.501 484.573ZM475.356 475.455C475.635 476.293 476.541 476.747 477.38 476.468C478.218 476.189 478.672 475.283 478.392 474.444L475.356 475.455ZM478.134 473.671C477.851 472.834 476.944 472.384 476.106 472.666C475.269 472.948 474.819 473.856 475.101 474.693L478.134 473.671ZM471.521 464.889C471.846 465.711 472.775 466.114 473.597 465.79C474.419 465.465 474.822 464.536 474.498 463.714L471.521 464.889ZM474.197 462.957C473.87 462.136 472.939 461.737 472.118 462.064C471.298 462.392 470.898 463.323 471.226 464.143L474.197 462.957ZM467.094 454.569C467.467 455.37 468.419 455.717 469.22 455.344C470.021 454.971 470.368 454.019 469.995 453.218L467.094 454.569ZM469.649 452.479C469.273 451.68 468.319 451.337 467.52 451.713C466.721 452.09 466.378 453.043 466.754 453.843L469.649 452.479ZM462.029 444.556C462.455 445.331 463.427 445.614 464.202 445.189C464.977 444.763 465.26 443.791 464.834 443.016L462.029 444.556ZM464.438 442.298C464.009 441.526 463.034 441.248 462.262 441.677C461.49 442.106 461.212 443.081 461.641 443.853L464.438 442.298ZM456.279 434.933C456.761 435.674 457.752 435.884 458.492 435.402C459.233 434.921 459.443 433.93 458.962 433.189L456.279 434.933ZM458.513 432.503C458.027 431.764 457.035 431.56 456.297 432.046C455.559 432.532 455.354 433.524 455.84 434.262L458.513 432.503ZM449.801 425.804C450.342 426.502 451.347 426.63 452.046 426.088C452.744 425.547 452.871 424.542 452.33 423.843L449.801 425.804ZM451.825 423.197C451.28 422.502 450.274 422.381 449.579 422.927C448.884 423.472 448.763 424.478 449.309 425.173L451.825 423.197ZM442.561 417.291C443.164 417.937 444.177 417.971 444.822 417.367C445.468 416.764 445.502 415.751 444.898 415.106L442.561 417.291ZM444.336 414.509C443.728 413.867 442.716 413.84 442.074 414.448C441.433 415.056 441.406 416.069 442.014 416.71L444.336 414.509ZM434.544 409.533C435.209 410.114 436.22 410.045 436.801 409.379C437.382 408.713 437.313 407.702 436.647 407.121L434.544 409.533ZM436.026 406.584C435.356 406.008 434.346 406.085 433.77 406.755C433.194 407.425 433.271 408.435 433.941 409.011L436.026 406.584ZM425.762 402.674C426.487 403.178 427.484 402.999 427.989 402.273C428.493 401.548 428.314 400.551 427.589 400.046L425.762 402.674ZM426.91 399.579C426.181 399.08 425.185 399.267 424.687 399.997C424.188 400.727 424.375 401.722 425.105 402.221L426.91 399.579ZM416.266 396.85C417.045 397.268 418.015 396.975 418.432 396.196C418.85 395.417 418.557 394.447 417.778 394.03L416.266 396.85ZM417.047 393.642C416.264 393.231 415.297 393.532 414.886 394.315C414.475 395.097 414.777 396.064 415.559 396.475L417.047 393.642ZM406.155 392.175C406.978 392.498 407.906 392.093 408.229 391.27C408.553 390.448 408.148 389.519 407.325 389.196L406.155 392.175ZM406.569 388.903C405.743 388.586 404.818 388.999 404.502 389.824C404.186 390.649 404.598 391.574 405.423 391.89L406.569 388.903ZM395.584 388.714C396.438 388.94 397.314 388.431 397.54 387.577C397.767 386.723 397.258 385.847 396.404 385.62L395.584 388.714ZM395.62 385.416C394.764 385.196 393.892 385.712 393.672 386.568C393.452 387.424 393.968 388.296 394.824 388.515L395.62 385.416ZM384.678 386.458C385.552 386.59 386.367 385.989 386.499 385.115C386.631 384.242 386.03 383.426 385.156 383.294L384.678 386.458ZM384.356 383.177C383.482 383.051 382.671 383.658 382.545 384.533C382.42 385.408 383.027 386.218 383.902 386.344L384.356 383.177ZM373.574 385.357C374.456 385.401 375.207 384.721 375.251 383.838C375.294 382.955 374.614 382.205 373.731 382.161L373.574 385.357ZM372.928 382.124C372.045 382.086 371.299 382.771 371.261 383.654C371.223 384.537 371.908 385.283 372.791 385.321L372.928 382.124ZM362.382 385.322C363.265 385.285 363.951 384.54 363.914 383.657C363.878 382.774 363.132 382.088 362.249 382.125L362.382 385.322ZM361.452 382.16C360.569 382.202 359.887 382.951 359.929 383.834C359.971 384.717 360.72 385.398 361.603 385.356L361.452 382.16ZM351.204 386.247C352.081 386.139 352.705 385.341 352.597 384.464C352.49 383.587 351.691 382.963 350.814 383.07L351.204 386.247ZM350.006 383.172C349.13 383.284 348.51 384.085 348.622 384.962C348.734 385.838 349.536 386.458 350.413 386.346L350.006 383.172ZM340.193 388.002C341.06 387.832 341.626 386.992 341.457 386.125C341.288 385.258 340.447 384.692 339.58 384.861L340.193 388.002ZM338.76 385.023C337.893 385.196 337.331 386.039 337.505 386.906C337.678 387.772 338.521 388.334 339.387 388.161L338.76 385.023ZM329.299 390.487C330.155 390.264 330.667 389.391 330.445 388.535C330.222 387.68 329.348 387.168 328.493 387.39L329.299 390.487ZM327.697 387.599C326.843 387.826 326.334 388.701 326.56 389.556C326.786 390.41 327.662 390.919 328.516 390.693L327.697 387.599ZM318.51 393.622C319.351 393.353 319.815 392.452 319.546 391.61C319.277 390.769 318.376 390.305 317.535 390.574L318.51 393.622ZM316.767 390.821C315.926 391.093 315.465 391.996 315.738 392.836C316.01 393.677 316.912 394.138 317.753 393.865L316.767 390.821ZM307.791 397.348C308.619 397.038 309.038 396.116 308.728 395.288C308.418 394.461 307.496 394.041 306.669 394.351L307.791 397.348ZM305.931 394.629C305.104 394.942 304.688 395.865 305 396.692C305.313 397.518 306.236 397.935 307.063 397.622L305.931 394.629ZM297.426 401.49C298.239 401.145 298.619 400.206 298.274 399.392C297.929 398.578 296.99 398.198 296.177 398.543L297.426 401.49ZM295.414 398.868C294.601 399.215 294.224 400.156 294.571 400.968C294.919 401.781 295.859 402.158 296.671 401.811L295.414 398.868ZM287.168 406.074C287.968 405.699 288.312 404.746 287.937 403.946C287.561 403.146 286.608 402.802 285.808 403.178L287.168 406.074ZM285.079 403.521C284.28 403.899 283.939 404.853 284.317 405.652C284.694 406.45 285.648 406.792 286.447 406.414L285.079 403.521ZM276.92 411.109C277.706 410.706 278.017 409.742 277.614 408.955C277.211 408.169 276.247 407.858 275.461 408.261L276.92 411.109ZM274.709 408.647C273.923 409.052 273.614 410.017 274.019 410.803C274.424 411.588 275.389 411.897 276.174 411.492L274.709 408.647ZM266.715 416.529C267.489 416.103 267.771 415.13 267.345 414.356C266.919 413.582 265.946 413.3 265.172 413.726L266.715 416.529ZM264.458 414.12C263.685 414.547 263.405 415.521 263.833 416.294C264.261 417.067 265.235 417.347 266.008 416.92L264.458 414.12ZM257.07 422.032C257.831 421.582 258.083 420.6 257.633 419.84C257.183 419.079 256.202 418.827 255.441 419.277L257.07 422.032ZM254.753 419.686C253.993 420.137 253.743 421.119 254.195 421.879C254.647 422.638 255.628 422.888 256.388 422.436L254.753 419.686ZM247.28 428.051C248.025 427.575 248.242 426.586 247.766 425.841C247.29 425.097 246.301 424.879 245.556 425.356L247.28 428.051ZM244.871 425.795C244.128 426.273 243.913 427.263 244.391 428.006C244.869 428.749 245.859 428.964 246.602 428.486L244.871 425.795ZM238.019 434.216C238.745 433.713 238.926 432.716 238.422 431.99C237.919 431.263 236.922 431.083 236.196 431.586L238.019 434.216ZM235.503 432.068C234.778 432.574 234.6 433.571 235.106 434.296C235.611 435.021 236.609 435.198 237.333 434.693L235.503 432.068ZM228.757 440.923C229.461 440.39 229.6 439.386 229.067 438.682C228.533 437.977 227.53 437.839 226.825 438.372L228.757 440.923ZM226.183 438.86C225.48 439.396 225.345 440.4 225.88 441.102C226.416 441.805 227.42 441.941 228.123 441.405L226.183 438.86ZM219.955 447.904C220.635 447.339 220.728 446.33 220.163 445.651C219.598 444.971 218.589 444.878 217.909 445.443L219.955 447.904ZM217.27 445.977C216.593 446.544 216.503 447.553 217.071 448.231C217.638 448.908 218.647 448.998 219.325 448.43L217.27 445.977ZM211.498 455.299C212.148 454.701 212.19 453.688 211.591 453.038C210.993 452.388 209.98 452.347 209.33 452.945L211.498 455.299ZM208.748 453.483C208.1 454.084 208.062 455.097 208.663 455.745C209.264 456.392 210.276 456.43 210.924 455.829L208.748 453.483ZM203.37 463.213C203.985 462.578 203.969 461.565 203.335 460.95C202.7 460.335 201.687 460.351 201.072 460.985L203.37 463.213ZM200.506 461.571C199.894 462.208 199.914 463.221 200.551 463.834C201.188 464.446 202.201 464.426 202.813 463.789L200.506 461.571ZM195.821 471.491C196.395 470.819 196.317 469.809 195.645 469.235C194.974 468.66 193.964 468.739 193.389 469.41L195.821 471.491ZM192.849 470.045C192.278 470.72 192.361 471.729 193.036 472.3C193.71 472.871 194.72 472.788 195.291 472.114L192.849 470.045ZM188.854 480.219C189.381 479.509 189.232 478.507 188.523 477.98C187.813 477.454 186.811 477.602 186.284 478.311L188.854 480.219ZM185.804 478.962C185.281 479.674 185.434 480.676 186.147 481.199C186.859 481.722 187.86 481.568 188.383 480.856L185.804 478.962ZM182.467 489.549C182.937 488.801 182.711 487.813 181.963 487.343C181.214 486.874 180.227 487.099 179.757 487.848L182.467 489.549ZM179.33 488.531C178.865 489.282 179.096 490.268 179.847 490.734C180.598 491.2 181.585 490.968 182.05 490.217L179.33 488.531ZM176.899 499.306C177.304 498.52 176.994 497.556 176.208 497.152C175.422 496.748 174.458 497.057 174.054 497.843L176.899 499.306ZM173.683 498.57C173.284 499.359 173.599 500.321 174.388 500.72C175.176 501.119 176.139 500.804 176.538 500.015L173.683 498.57ZM172.246 509.487C172.575 508.667 172.176 507.735 171.356 507.407C170.536 507.078 169.604 507.476 169.276 508.297L172.246 509.487ZM168.972 509.063C168.649 509.885 169.054 510.814 169.877 511.137C170.699 511.46 171.628 511.054 171.951 510.232L168.972 509.063ZM168.616 520.056C168.86 519.207 168.369 518.321 167.519 518.077C166.67 517.834 165.784 518.325 165.54 519.174L168.616 520.056ZM165.315 519.971C165.078 520.823 165.576 521.705 166.427 521.942C167.279 522.179 168.161 521.681 168.398 520.83L165.315 519.971ZM166.123 530.941C166.273 530.07 165.688 529.243 164.817 529.094C163.946 528.944 163.119 529.529 162.969 530.4L166.123 530.941ZM162.832 531.218C162.69 532.09 163.281 532.913 164.153 533.055C165.025 533.198 165.848 532.606 165.99 531.734L162.832 531.218ZM164.864 542.033C164.912 541.151 164.237 540.396 163.354 540.347C162.472 540.299 161.717 540.974 161.669 541.857L164.864 542.033ZM161.626 542.685C161.585 543.568 162.267 544.317 163.15 544.358C164.032 544.4 164.781 543.718 164.823 542.835L161.626 542.685ZM164.906 553.194C164.85 552.312 164.09 551.642 163.208 551.698C162.326 551.754 161.657 552.514 161.712 553.396L164.906 553.194ZM161.768 554.223C161.832 555.104 162.598 555.767 163.479 555.704C164.361 555.64 165.024 554.874 164.96 553.993L161.768 554.223ZM166.279 564.269C166.118 563.4 165.283 562.826 164.414 562.987C163.545 563.149 162.971 563.984 163.133 564.852L166.279 564.269ZM163.287 565.665C163.456 566.532 164.295 567.098 165.163 566.93C166.03 566.761 166.597 565.921 166.428 565.054L163.287 565.665ZM168.97 575.1C168.706 574.256 167.808 573.787 166.965 574.051C166.122 574.315 165.652 575.213 165.916 576.056L168.97 575.1ZM166.166 576.842C166.437 577.683 167.339 578.145 168.18 577.874C169.021 577.603 169.483 576.701 169.212 575.86L166.166 576.842ZM172.933 585.535C172.571 584.729 171.624 584.369 170.818 584.731C170.011 585.093 169.651 586.04 170.013 586.846L172.933 585.535ZM170.354 587.597C170.723 588.4 171.673 588.752 172.476 588.383C173.279 588.014 173.631 587.064 173.262 586.261L170.354 587.597ZM178.095 595.436C177.642 594.678 176.659 594.431 175.901 594.884C175.143 595.338 174.895 596.32 175.349 597.079L178.095 595.436ZM175.774 597.783C176.234 598.538 177.219 598.777 177.973 598.317C178.728 597.857 178.967 596.873 178.507 596.118L175.774 597.783ZM184.372 604.673C183.834 603.972 182.829 603.84 182.128 604.378C181.427 604.916 181.295 605.92 181.833 606.621L184.372 604.673ZM182.336 607.271C182.88 607.968 183.885 608.092 184.582 607.548C185.278 607.005 185.402 605.999 184.859 605.303L182.336 607.271ZM191.668 613.127C191.053 612.492 190.04 612.477 189.405 613.091C188.771 613.706 188.755 614.719 189.37 615.354L191.668 613.127ZM189.945 615.943C190.566 616.572 191.579 616.58 192.208 615.96C192.837 615.34 192.845 614.326 192.225 613.697L189.945 615.943ZM199.896 620.685C199.211 620.126 198.203 620.228 197.645 620.913C197.086 621.597 197.188 622.605 197.873 623.164L199.896 620.685ZM198.517 623.685C199.206 624.238 200.213 624.127 200.766 623.438C201.319 622.749 201.208 621.742 200.519 621.189L198.517 623.685ZM208.956 627.219C208.21 626.746 207.221 626.968 206.749 627.715C206.276 628.462 206.498 629.45 207.245 629.923L208.956 627.219ZM207.946 630.362C208.697 630.828 209.683 630.597 210.149 629.847C210.615 629.096 210.384 628.109 209.634 627.643L207.946 630.362ZM218.737 632.587C217.937 632.212 216.985 632.556 216.61 633.356C216.235 634.156 216.579 635.109 217.379 635.484L218.737 632.587ZM218.129 635.831C218.933 636.199 219.882 635.846 220.25 635.042C220.617 634.239 220.264 633.289 219.46 632.922L218.129 635.831ZM229.113 636.635C228.27 636.37 227.372 636.84 227.108 637.683C226.843 638.526 227.312 639.424 228.155 639.688L229.113 636.635ZM228.944 639.932C229.79 640.188 230.683 639.71 230.939 638.864C231.195 638.018 230.717 637.125 229.872 636.869L228.944 639.932ZM239.929 639.198C239.056 639.058 238.235 639.651 238.095 640.524C237.955 641.396 238.549 642.217 239.421 642.357L239.929 639.198ZM240.237 642.484C241.111 642.615 241.926 642.012 242.056 641.138C242.187 640.264 241.585 639.45 240.711 639.319L240.237 642.484ZM250.991 640.109C250.108 640.107 249.389 640.821 249.386 641.704C249.383 642.588 250.097 643.306 250.981 643.309L250.991 640.109ZM251.811 643.307C252.694 643.3 253.405 642.577 253.397 641.694C253.39 640.81 252.668 640.1 251.784 640.107L251.811 643.307ZM262.033 639.234C261.161 639.377 260.571 640.2 260.714 641.072C260.857 641.944 261.68 642.535 262.552 642.392L262.033 639.234ZM263.37 642.252C264.24 642.099 264.821 641.269 264.667 640.398C264.514 639.528 263.684 638.948 262.813 639.101L263.37 642.252ZM272.759 636.517C271.924 636.806 271.482 637.718 271.772 638.553C272.061 639.388 272.973 639.83 273.808 639.54L272.759 636.517ZM274.594 639.262C275.425 638.963 275.856 638.046 275.556 637.214C275.256 636.383 274.34 635.952 273.508 636.252L274.594 639.262ZM282.881 632.012C282.106 632.438 281.824 633.41 282.249 634.185C282.675 634.959 283.648 635.242 284.422 634.816L282.881 632.012ZM285.156 634.407C285.926 633.972 286.197 632.996 285.762 632.226C285.327 631.457 284.351 631.186 283.581 631.621L285.156 634.407ZM292.153 625.892C291.456 626.435 291.331 627.441 291.874 628.138C292.417 628.835 293.422 628.96 294.12 628.417L292.153 625.892ZM294.786 627.892C295.477 627.341 295.591 626.335 295.04 625.644C294.49 624.953 293.483 624.839 292.792 625.389L294.786 627.892ZM300.418 618.424C299.806 619.061 299.826 620.074 300.463 620.686C301.1 621.299 302.113 621.279 302.725 620.642L300.418 618.424ZM303.303 620.034C303.908 619.391 303.877 618.378 303.233 617.773C302.589 617.168 301.577 617.199 300.971 617.843L303.303 620.034ZM307.195 609.976C306.709 610.714 306.913 611.707 307.651 612.193C308.389 612.679 309.381 612.475 309.867 611.737L307.195 609.976ZM310.312 611.051C310.788 610.307 310.571 609.317 309.826 608.841C309.082 608.365 308.092 608.583 307.616 609.327L310.312 611.051ZM312.237 600.449C311.901 601.266 312.291 602.201 313.108 602.537C313.925 602.873 314.86 602.483 315.196 601.666L312.237 600.449ZM315.5 600.914C315.825 600.092 315.422 599.162 314.601 598.837C313.779 598.512 312.849 598.915 312.524 599.737L315.5 600.914ZM315.361 590.131C315.187 590.997 315.748 591.84 316.615 592.014C317.481 592.188 318.324 591.626 318.498 590.76L315.361 590.131ZM318.653 589.959C318.815 589.09 318.242 588.255 317.373 588.093C316.505 587.931 315.669 588.504 315.507 589.372L318.653 589.959ZM316.47 579.403C316.462 580.287 317.172 581.009 318.056 581.017C318.939 581.025 319.662 580.315 319.67 579.431L316.47 579.403ZM319.671 578.616C319.667 577.732 318.947 577.019 318.064 577.023C317.18 577.027 316.467 577.747 316.471 578.631L319.671 578.616ZM315.554 568.649C315.711 569.518 316.543 570.096 317.413 569.939C318.283 569.782 318.86 568.95 318.703 568.08L315.554 568.649ZM318.553 567.281C318.385 566.413 317.545 565.847 316.678 566.015C315.81 566.184 315.244 567.024 315.412 567.891L318.553 567.281ZM312.642 558.264C312.962 559.088 313.888 559.498 314.712 559.179C315.536 558.859 315.946 557.933 315.627 557.109L312.642 558.264ZM315.327 556.35C314.996 555.53 314.064 555.134 313.244 555.465C312.425 555.795 312.028 556.727 312.359 557.547L315.327 556.35ZM307.776 548.665C308.254 549.408 309.244 549.623 309.987 549.144C310.73 548.666 310.945 547.676 310.466 546.933L307.776 548.665ZM310.018 546.248C309.528 545.512 308.535 545.312 307.799 545.802C307.064 546.291 306.864 547.285 307.354 548.02L310.018 546.248ZM301.02 540.334C301.65 540.953 302.663 540.943 303.282 540.312C303.901 539.681 303.891 538.668 303.26 538.049L301.02 540.334ZM302.669 537.479C302.028 536.871 301.015 536.898 300.407 537.539C299.799 538.18 299.826 539.193 300.467 539.801L302.669 537.479ZM292.54 533.837C293.303 534.282 294.283 534.024 294.728 533.26C295.173 532.497 294.914 531.517 294.151 531.072L292.54 533.837ZM293.436 530.664C292.665 530.234 291.69 530.51 291.259 531.282C290.829 532.053 291.105 533.028 291.877 533.459L293.436 530.664ZM282.716 529.731C283.569 529.96 284.447 529.455 284.677 528.602C284.907 527.749 284.401 526.871 283.548 526.641L282.716 529.731ZM282.746 526.433C281.889 526.22 281.021 526.742 280.807 527.599C280.594 528.457 281.116 529.325 281.973 529.538L282.746 526.433ZM272.153 528.321C273.036 528.326 273.757 527.614 273.762 526.731C273.768 525.847 273.056 525.127 272.172 525.121L272.153 528.321ZM271.351 525.123C270.467 525.133 269.759 525.858 269.769 526.741C269.779 527.625 270.503 528.333 271.387 528.323L271.351 525.123ZM261.483 529.499C262.345 529.307 262.889 528.453 262.697 527.59C262.505 526.727 261.65 526.184 260.788 526.376L261.483 529.499ZM-87.2651 759.104C-87.1386 759.125 -87.0118 759.147 -86.8849 759.168L-86.359 756.011C-86.4845 755.99 -86.6098 755.969 -86.7349 755.948L-87.2651 759.104ZM-76.6239 760.696C-76.3518 760.732 -76.0789 760.768 -75.8054 760.804L-75.3922 757.631C-75.6632 757.595 -75.9336 757.56 -76.2033 757.524L-76.6239 760.696ZM-65.4314 762.008C-65.1654 762.035 -64.8988 762.062 -64.6317 762.089L-64.3107 758.905C-64.5758 758.878 -64.8404 758.851 -65.1044 758.824L-65.4314 762.008ZM-54.0965 763.026C-53.8358 763.046 -53.5746 763.066 -53.313 763.086L-53.0704 759.895C-53.3303 759.875 -53.5898 759.855 -53.8488 759.835L-54.0965 763.026ZM-42.8917 763.774C-42.619 763.789 -42.3459 763.805 -42.0723 763.82L-41.8965 760.625C-42.1686 760.61 -42.4402 760.594 -42.7113 760.579L-42.8917 763.774ZM-31.6498 764.302C-31.3836 764.312 -31.117 764.322 -30.8501 764.332L-30.7331 761.134C-30.9987 761.124 -31.2639 761.114 -31.5288 761.104L-31.6498 764.302ZM-20.2704 764.635C-20.0005 764.641 -19.7302 764.646 -19.4597 764.652L-19.396 761.452C-19.6654 761.447 -19.9344 761.442 -20.2031 761.436L-20.2704 764.635ZM-9.1123 764.785C-8.84339 764.787 -8.57423 764.788 -8.30479 764.79L-8.2886 761.59C-8.55694 761.588 -8.82501 761.587 -9.09281 761.585L-9.1123 764.785ZM2.2318 764.774C2.49551 764.772 2.75945 764.77 3.02361 764.767L2.99541 761.568C2.73224 761.57 2.46929 761.572 2.20659 761.574L2.2318 764.774ZM13.4391 764.613C13.709 764.607 13.9791 764.602 14.2495 764.596L14.1803 761.397C13.911 761.402 13.6418 761.408 13.3729 761.414L13.4391 764.613ZM24.7365 764.31C25.0015 764.301 25.2667 764.292 25.5321 764.283L25.4243 761.085C25.1598 761.094 24.8955 761.103 24.6314 761.111L24.7365 764.31ZM35.9718 763.875C36.2417 763.863 36.5118 763.851 36.782 763.839L36.6377 760.642C36.3683 760.654 36.0991 760.667 35.83 760.678L35.9718 763.875ZM47.2374 763.313C47.503 763.299 47.7687 763.284 48.0345 763.269L47.8552 760.074C47.5902 760.089 47.3253 760.104 47.0606 760.118L47.2374 763.313ZM58.4725 762.632C58.7419 762.614 59.0114 762.596 59.281 762.578L59.0681 759.385C58.7993 759.403 58.5306 759.421 58.262 759.439L58.4725 762.632ZM69.7168 761.832C69.9824 761.812 70.2481 761.792 70.5139 761.771L70.2686 758.581C70.0035 758.601 69.7385 758.622 69.4737 758.642L69.7168 761.832ZM80.9357 760.921C81.2042 760.898 81.4729 760.875 81.7416 760.852L81.4646 757.664C81.1966 757.687 80.9287 757.71 80.6609 757.733L80.9357 760.921ZM92.1633 759.899C92.4287 759.873 92.6942 759.848 92.9598 759.822L92.6518 756.637C92.387 756.662 92.1222 756.688 91.8575 756.713L92.1633 759.899ZM103.358 758.77C103.625 758.742 103.893 758.713 104.161 758.685L103.822 755.503C103.555 755.531 103.288 755.559 103.022 755.588L103.358 758.77ZM114.568 757.532C114.833 757.501 115.098 757.47 115.364 757.44L114.995 754.261C114.731 754.292 114.466 754.322 114.202 754.353L114.568 757.532ZM125.735 756.191C126.002 756.158 126.268 756.125 126.535 756.091L126.136 752.916C125.871 752.949 125.605 752.983 125.339 753.016L125.735 756.191ZM136.923 754.742C137.188 754.706 137.452 754.671 137.717 754.635L137.289 751.464C137.025 751.499 136.761 751.535 136.497 751.57L136.923 754.742ZM148.061 753.192C148.327 753.154 148.592 753.116 148.858 753.077L148.4 749.91C148.135 749.948 147.87 749.987 147.605 750.025L148.061 753.192ZM159.218 751.532C159.483 751.492 159.747 751.451 160.012 751.41L159.524 748.248C159.26 748.288 158.996 748.329 158.732 748.37L159.218 751.532ZM170.329 749.772C170.594 749.728 170.858 749.685 171.123 749.642L170.605 746.484C170.341 746.527 170.077 746.57 169.813 746.613L170.329 749.772ZM181.444 747.9C181.708 747.854 181.972 747.809 182.236 747.763L181.687 744.61C181.424 744.656 181.161 744.702 180.898 744.747L181.444 747.9ZM192.528 745.922C192.792 745.874 193.056 745.826 193.319 745.777L192.74 742.63C192.477 742.678 192.214 742.727 191.951 742.775L192.528 745.922ZM203.593 743.835C203.856 743.784 204.119 743.732 204.382 743.681L203.77 740.54C203.508 740.591 203.246 740.642 202.983 740.693L203.593 743.835ZM214.647 741.632C214.91 741.578 215.173 741.524 215.436 741.47L214.792 738.336C214.53 738.389 214.268 738.443 214.006 738.497L214.647 741.632ZM225.661 739.317C225.923 739.261 226.184 739.204 226.446 739.147L225.769 736.02C225.508 736.076 225.247 736.133 224.986 736.189L225.661 739.317ZM236.671 736.879C236.933 736.82 237.195 736.76 237.457 736.7L236.745 733.581C236.484 733.64 236.223 733.699 235.962 733.759L236.671 736.879ZM247.633 734.324C247.893 734.262 248.153 734.199 248.413 734.137L247.667 731.025C247.407 731.088 247.148 731.15 246.889 731.212L247.633 734.324ZM258.584 731.638C258.845 731.572 259.106 731.506 259.366 731.44L258.583 728.338C258.323 728.403 258.063 728.469 257.803 728.534L258.584 731.638ZM269.489 728.823C269.747 728.755 270.006 728.687 270.264 728.618L269.442 725.525C269.185 725.594 268.928 725.662 268.67 725.73L269.489 728.823ZM280.365 725.871C280.625 725.799 280.884 725.726 281.143 725.654L280.282 722.572C280.024 722.644 279.765 722.716 279.507 722.788L280.365 725.871ZM291.203 722.775C291.46 722.7 291.716 722.625 291.972 722.549L291.07 719.479C290.814 719.554 290.559 719.629 290.304 719.704L291.203 722.775ZM301.989 719.532C302.247 719.453 302.505 719.373 302.763 719.293L301.817 716.236C301.56 716.316 301.303 716.395 301.046 716.474L301.989 719.532ZM312.745 716.126C312.999 716.044 313.253 715.961 313.507 715.878L312.515 712.836C312.262 712.918 312.009 713.001 311.756 713.083L312.745 716.126ZM323.426 712.561C323.681 712.473 323.937 712.385 324.193 712.298L323.152 709.272C322.897 709.359 322.643 709.447 322.388 709.534L323.426 712.561ZM334.074 708.81C334.325 708.719 334.576 708.628 334.826 708.537L333.733 705.53C333.484 705.62 333.234 705.711 332.985 705.801L334.074 708.81ZM344.63 704.881C344.883 704.784 345.136 704.687 345.388 704.59L344.24 701.603C343.989 701.699 343.737 701.796 343.486 701.892L344.63 704.881ZM355.132 700.742C355.38 700.642 355.626 700.541 355.873 700.441L354.666 697.477C354.421 697.577 354.175 697.677 353.93 697.777L355.132 700.742ZM365.54 696.391C365.789 696.284 366.038 696.177 366.286 696.069L365.015 693.133C364.768 693.239 364.521 693.346 364.274 693.453L365.54 696.391ZM375.842 691.813C376.083 691.702 376.324 691.591 376.565 691.48L375.226 688.574C374.987 688.684 374.747 688.794 374.507 688.904L375.842 691.813ZM386.065 686.967C386.308 686.848 386.55 686.729 386.793 686.609L385.379 683.739C385.139 683.857 384.898 683.975 384.657 684.093L386.065 686.967ZM396.083 681.885C396.317 681.762 396.551 681.639 396.784 681.516L395.29 678.686C395.059 678.808 394.827 678.93 394.595 679.052L396.083 681.885ZM406.063 676.445C406.297 676.312 406.531 676.179 406.765 676.046L405.182 673.265C404.95 673.397 404.719 673.529 404.486 673.66L406.063 676.445ZM415.73 670.752C415.964 670.609 416.198 670.465 416.432 670.321L414.752 667.597C414.521 667.74 414.29 667.882 414.058 668.024L415.73 670.752ZM425.314 664.619C425.536 664.471 425.758 664.322 425.979 664.174L424.192 661.519C423.973 661.666 423.755 661.813 423.535 661.959L425.314 664.619ZM434.579 658.125C434.798 657.964 435.017 657.803 435.236 657.641L433.331 655.07C433.115 655.229 432.899 655.389 432.683 655.548L434.579 658.125ZM443.474 651.237C443.678 651.07 443.882 650.903 444.085 650.736L442.051 648.265C441.851 648.43 441.651 648.594 441.45 648.758L443.474 651.237ZM452.107 643.758C452.304 643.576 452.501 643.394 452.697 643.212L450.519 640.868C450.326 641.047 450.133 641.226 449.939 641.404L452.107 643.758ZM460.189 635.803C460.377 635.605 460.564 635.406 460.75 635.208L458.416 633.019C458.233 633.214 458.05 633.408 457.866 633.602L460.189 635.803ZM467.638 627.312C467.812 627.097 467.986 626.881 468.158 626.665L465.657 624.669C465.489 624.88 465.32 625.09 465.15 625.3L467.638 627.312ZM474.42 618.105C474.569 617.882 474.717 617.659 474.863 617.436L472.188 615.68C472.046 615.897 471.902 616.114 471.758 616.331L474.42 618.105ZM480.254 608.288C480.38 608.048 480.505 607.807 480.629 607.566L477.782 606.105C477.662 606.338 477.542 606.571 477.42 606.804L480.254 608.288ZM484.948 597.896C485.046 597.641 485.142 597.385 485.237 597.129L482.236 596.016C482.145 596.263 482.052 596.51 481.958 596.756L484.948 597.896ZM488.328 586.986C488.391 586.722 488.453 586.456 488.514 586.191L485.396 585.474C485.337 585.73 485.277 585.985 485.216 586.241L488.328 586.986ZM490.246 575.682C490.26 575.546 490.273 575.409 490.286 575.272L487.101 574.967C487.088 575.098 487.075 575.23 487.062 575.361L490.246 575.682ZM490.286 575.272C490.299 575.141 490.311 575.01 490.323 574.879L487.137 574.58C487.125 574.709 487.113 574.838 487.101 574.967L490.286 575.272ZM491.017 564.34C491.028 564.07 491.038 563.8 491.048 563.529L487.85 563.414C487.84 563.681 487.83 563.947 487.82 564.213L491.017 564.34ZM491.184 552.926C491.181 552.652 491.178 552.378 491.174 552.103L487.975 552.144C487.978 552.415 487.981 552.686 487.984 552.956L491.184 552.926ZM490.816 541.501C490.801 541.229 490.786 540.957 490.77 540.684L487.576 540.867C487.591 541.137 487.606 541.406 487.621 541.675L490.816 541.501ZM489.957 530.146C489.931 529.878 489.905 529.61 489.878 529.342L486.694 529.66C486.72 529.925 486.746 530.19 486.772 530.454L489.957 530.146ZM488.622 518.837C488.585 518.569 488.547 518.301 488.509 518.033L485.341 518.484C485.379 518.749 485.416 519.014 485.453 519.278L488.622 518.837ZM486.813 507.585C486.764 507.318 486.715 507.052 486.665 506.785L483.519 507.37C483.568 507.633 483.617 507.897 483.665 508.16L486.813 507.585ZM484.519 496.416C484.458 496.152 484.397 495.887 484.336 495.622L481.219 496.345C481.279 496.607 481.339 496.868 481.399 497.129L484.519 496.416ZM481.721 485.358C481.648 485.097 481.575 484.835 481.501 484.573L478.421 485.442C478.494 485.7 478.566 485.958 478.638 486.216L481.721 485.358ZM478.392 474.444C478.307 474.187 478.22 473.929 478.134 473.671L475.101 474.693C475.187 474.947 475.272 475.201 475.356 475.455L478.392 474.444ZM474.498 463.714C474.398 463.461 474.298 463.209 474.197 462.957L471.226 464.143C471.325 464.392 471.423 464.64 471.521 464.889L474.498 463.714ZM469.995 453.218C469.881 452.972 469.765 452.725 469.649 452.479L466.754 453.843C466.868 454.084 466.982 454.326 467.094 454.569L469.995 453.218ZM464.834 443.016C464.703 442.776 464.571 442.537 464.438 442.298L461.641 443.853C461.771 444.087 461.9 444.322 462.029 444.556L464.834 443.016ZM458.962 433.189C458.813 432.96 458.663 432.731 458.513 432.503L455.84 434.262C455.987 434.485 456.133 434.709 456.279 434.933L458.962 433.189ZM452.33 423.843C452.162 423.627 451.994 423.412 451.825 423.197L449.309 425.173C449.473 425.383 449.637 425.593 449.801 425.804L452.33 423.843ZM444.898 415.106C444.712 414.906 444.524 414.707 444.336 414.509L442.014 416.71C442.197 416.903 442.379 417.097 442.561 417.291L444.898 415.106ZM436.647 407.121C436.441 406.941 436.234 406.762 436.026 406.584L433.941 409.011C434.143 409.184 434.343 409.358 434.544 409.533L436.647 407.121ZM427.589 400.046C427.363 399.889 427.137 399.734 426.91 399.579L425.105 402.221C425.325 402.371 425.544 402.522 425.762 402.674L427.589 400.046ZM417.778 394.03C417.535 393.9 417.291 393.77 417.047 393.642L415.559 396.475C415.795 396.599 416.031 396.724 416.266 396.85L417.778 394.03ZM407.325 389.196C407.074 389.097 406.822 388.999 406.569 388.903L405.423 391.89C405.668 391.984 405.912 392.079 406.155 392.175L407.325 389.196ZM396.404 385.62C396.143 385.551 395.882 385.483 395.62 385.416L394.824 388.515C395.078 388.581 395.331 388.647 395.584 388.714L396.404 385.62ZM385.156 383.294C384.89 383.254 384.624 383.215 384.356 383.177L383.902 386.344C384.161 386.381 384.42 386.419 384.678 386.458L385.156 383.294ZM373.731 382.161C373.464 382.148 373.196 382.135 372.928 382.124L372.791 385.321C373.053 385.332 373.313 385.344 373.574 385.357L373.731 382.161ZM362.249 382.125C361.984 382.136 361.718 382.147 361.452 382.16L361.603 385.356C361.863 385.344 362.123 385.333 362.382 385.322L362.249 382.125ZM350.814 383.07C350.545 383.103 350.276 383.137 350.006 383.172L350.413 386.346C350.677 386.312 350.94 386.279 351.204 386.247L350.814 383.07ZM339.58 384.861C339.307 384.914 339.034 384.968 338.76 385.023L339.387 388.161C339.656 388.107 339.925 388.054 340.193 388.002L339.58 384.861ZM328.493 387.39C328.228 387.459 327.963 387.529 327.697 387.599L328.516 390.693C328.778 390.623 329.039 390.555 329.299 390.487L328.493 387.39ZM317.535 390.574C317.279 390.656 317.023 390.738 316.767 390.821L317.753 393.865C318.006 393.784 318.258 393.702 318.51 393.622L317.535 390.574ZM306.669 394.351C306.423 394.443 306.177 394.536 305.931 394.629L307.063 397.622C307.306 397.53 307.549 397.439 307.791 397.348L306.669 394.351ZM296.177 398.543C295.923 398.651 295.668 398.759 295.414 398.868L296.671 401.811C296.923 401.703 297.174 401.596 297.426 401.49L296.177 398.543ZM285.808 403.178C285.566 403.292 285.323 403.406 285.079 403.521L286.447 406.414C286.688 406.301 286.928 406.187 287.168 406.074L285.808 403.178ZM275.461 408.261C275.335 408.325 275.21 408.389 275.085 408.454L276.548 411.3C276.672 411.236 276.796 411.172 276.92 411.109L275.461 408.261ZM275.085 408.454C274.96 408.518 274.834 408.583 274.709 408.647L276.174 411.492C276.299 411.428 276.423 411.364 276.548 411.3L275.085 408.454ZM265.172 413.726C264.934 413.857 264.696 413.988 264.458 414.12L266.008 416.92C266.243 416.789 266.479 416.659 266.715 416.529L265.172 413.726ZM255.441 419.277C255.211 419.413 254.982 419.549 254.753 419.686L256.388 422.436C256.615 422.301 256.842 422.166 257.07 422.032L255.441 419.277ZM245.556 425.356C245.327 425.502 245.099 425.648 244.871 425.795L246.602 428.486C246.828 428.341 247.054 428.196 247.28 428.051L245.556 425.356ZM236.196 431.586C235.964 431.747 235.733 431.907 235.503 432.068L237.333 434.693C237.561 434.534 237.79 434.375 238.019 434.216L236.196 431.586ZM226.825 438.372C226.611 438.535 226.397 438.697 226.183 438.86L228.123 441.405C228.334 441.245 228.545 441.084 228.757 440.923L226.825 438.372ZM217.909 445.443C217.696 445.621 217.483 445.799 217.27 445.977L219.325 448.43C219.534 448.255 219.745 448.079 219.955 447.904L217.909 445.443ZM209.33 452.945C209.135 453.125 208.941 453.304 208.748 453.483L210.924 455.829C211.115 455.653 211.306 455.476 211.498 455.299L209.33 452.945ZM201.072 460.985C200.883 461.181 200.694 461.376 200.506 461.571L202.813 463.789C202.998 463.597 203.183 463.405 203.37 463.213L201.072 460.985ZM193.389 469.41C193.208 469.622 193.028 469.834 192.849 470.045L195.291 472.114C195.467 471.906 195.643 471.698 195.821 471.491L193.389 469.41ZM186.284 478.311C186.123 478.528 185.963 478.745 185.804 478.962L188.383 480.856C188.539 480.643 188.696 480.431 188.854 480.219L186.284 478.311ZM179.757 487.848C179.614 488.075 179.472 488.303 179.33 488.531L182.05 490.217C182.188 489.994 182.327 489.772 182.467 489.549L179.757 487.848ZM174.054 497.843C173.929 498.085 173.805 498.328 173.683 498.57L176.538 500.015C176.657 499.779 176.778 499.543 176.899 499.306L174.054 497.843ZM169.276 508.297C169.173 508.552 169.072 508.807 168.972 509.063L171.951 510.232C172.048 509.984 172.147 509.735 172.246 509.487L169.276 508.297ZM165.54 519.174C165.464 519.44 165.389 519.706 165.315 519.971L168.398 520.83C168.47 520.572 168.543 520.314 168.616 520.056L165.54 519.174ZM162.969 530.4C162.922 530.673 162.877 530.946 162.832 531.218L165.99 531.734C166.033 531.47 166.078 531.206 166.123 530.941L162.969 530.4ZM161.669 541.857C161.653 542.133 161.639 542.409 161.626 542.685L164.823 542.835C164.835 542.568 164.849 542.301 164.864 542.033L161.669 541.857ZM161.712 553.396C161.73 553.672 161.749 553.948 161.768 554.223L164.96 553.993C164.941 553.727 164.923 553.461 164.906 553.194L161.712 553.396ZM163.133 564.852C163.183 565.124 163.234 565.394 163.287 565.665L166.428 565.054C166.377 564.792 166.327 564.531 166.279 564.269L163.133 564.852ZM165.916 576.056C165.998 576.319 166.082 576.581 166.166 576.842L169.212 575.86C169.13 575.607 169.049 575.354 168.97 575.1L165.916 576.056ZM170.013 586.846C170.126 587.097 170.24 587.347 170.354 587.597L173.262 586.261C173.151 586.02 173.042 585.778 172.933 585.535L170.013 586.846ZM175.349 597.079C175.49 597.314 175.632 597.549 175.774 597.783L178.507 596.118C178.369 595.891 178.232 595.664 178.095 595.436L175.349 597.079ZM181.833 606.621C182 606.839 182.167 607.056 182.336 607.271L184.859 605.303C184.696 605.094 184.533 604.884 184.372 604.673L181.833 606.621ZM189.37 615.354C189.561 615.551 189.753 615.747 189.945 615.943L192.225 613.697C192.039 613.508 191.853 613.318 191.668 613.127L189.37 615.354ZM197.873 623.164C198.087 623.339 198.301 623.512 198.517 623.685L200.519 621.189C200.311 621.022 200.103 620.854 199.896 620.685L197.873 623.164ZM207.245 629.923C207.478 630.07 207.712 630.217 207.946 630.362L209.634 627.643C209.407 627.503 209.182 627.361 208.956 627.219L207.245 629.923ZM217.379 635.484C217.629 635.601 217.879 635.717 218.129 635.831L219.46 632.922C219.219 632.811 218.978 632.699 218.737 632.587L217.379 635.484ZM228.155 639.688C228.418 639.771 228.681 639.852 228.944 639.932L229.872 636.869C229.619 636.792 229.366 636.714 229.113 636.635L228.155 639.688ZM239.421 642.357C239.693 642.401 239.965 642.443 240.237 642.484L240.711 639.319C240.45 639.28 240.189 639.24 239.929 639.198L239.421 642.357ZM250.981 643.309C251.258 643.31 251.534 643.309 251.811 643.307L251.784 640.107C251.52 640.109 251.256 640.11 250.991 640.109L250.981 643.309ZM262.552 642.392C262.825 642.347 263.098 642.301 263.37 642.252L262.813 639.101C262.554 639.147 262.294 639.191 262.033 639.234L262.552 642.392ZM273.808 639.54C274.07 639.449 274.332 639.357 274.594 639.262L273.508 636.252C273.259 636.342 273.009 636.43 272.759 636.517L273.808 639.54ZM284.422 634.816C284.667 634.681 284.912 634.545 285.156 634.407L283.581 631.621C283.348 631.753 283.115 631.883 282.881 632.012L284.422 634.816ZM294.12 628.417C294.342 628.244 294.564 628.069 294.786 627.892L292.792 625.389C292.58 625.559 292.367 625.726 292.153 625.892L294.12 628.417ZM302.725 620.642C302.823 620.54 302.922 620.437 303.02 620.334L300.702 618.127C300.608 618.226 300.513 618.325 300.418 618.424L302.725 620.642ZM303.02 620.334C303.115 620.234 303.209 620.134 303.303 620.034L300.971 617.843C300.882 617.938 300.793 618.033 300.702 618.127L303.02 620.334ZM309.867 611.737C310.017 611.509 310.166 611.28 310.312 611.051L307.616 609.327C307.478 609.544 307.337 609.761 307.195 609.976L309.867 611.737ZM315.196 601.666C315.3 601.416 315.401 601.165 315.5 600.914L312.524 599.737C312.43 599.974 312.335 600.212 312.237 600.449L315.196 601.666ZM318.498 590.76C318.552 590.493 318.603 590.226 318.653 589.959L315.507 589.372C315.46 589.625 315.411 589.878 315.361 590.131L318.498 590.76ZM319.67 579.431C319.672 579.159 319.673 578.887 319.671 578.616L316.471 578.631C316.473 578.888 316.472 579.146 316.47 579.403L319.67 579.431ZM318.703 568.08C318.655 567.813 318.605 567.547 318.553 567.281L315.412 567.891C315.461 568.143 315.509 568.396 315.554 568.649L318.703 568.08ZM315.627 557.109C315.528 556.855 315.428 556.602 315.327 556.35L312.359 557.547C312.455 557.785 312.55 558.024 312.642 558.264L315.627 557.109ZM310.466 546.933C310.318 546.703 310.169 546.475 310.018 546.248L307.354 548.02C307.496 548.234 307.636 548.449 307.776 548.665L310.466 546.933ZM303.26 538.049C303.065 537.858 302.868 537.667 302.669 537.479L300.467 539.801C300.653 539.977 300.837 540.155 301.02 540.334L303.26 538.049ZM294.151 531.072C293.914 530.934 293.676 530.798 293.436 530.664L291.877 533.459C292.099 533.583 292.32 533.709 292.54 533.837L294.151 531.072ZM283.548 526.641C283.282 526.569 283.015 526.5 282.746 526.433L281.973 529.538C282.222 529.6 282.469 529.664 282.716 529.731L283.548 526.641ZM272.172 525.121C271.899 525.12 271.625 525.12 271.351 525.123L271.387 528.323C271.643 528.32 271.898 528.32 272.153 528.321L272.172 525.121ZM260.788 526.376C260.652 526.406 260.517 526.437 260.381 526.468L261.099 529.586C261.227 529.557 261.355 529.528 261.483 529.499L260.788 526.376Z" fill="white"/>
<g id="Group 916">
<path id="Vector 8" d="M468.601 949.6C488.551 896.781 598.318 798.763 877.791 829.242C1227.13 867.341 1465.23 1007.61 1851 802.4" stroke="white" stroke-width="3.2" stroke-linecap="round" stroke-dasharray="0.8 10.4"/>
</g>
</g>
</g>
</svg>
