<svg width="1822" height="256" viewBox="0 0 1822 256" fill="none" xmlns="http://www.w3.org/2000/svg">
<path d="M320.238 147.798C162.096 135.674 40.8534 210.394 0 249.27L1821.6 255.2V168.224C1816.86 158.736 1778.77 156.803 1760.32 157.023C1712.88 41.0547 1544.85 44.1296 1466.77 60.1631C1450.95 45.9306 1401.61 42.8119 1378.91 43.0316C1335.09 -1.57576 1232.51 9.81318 1186.07 21.2875C1068.25 -30.8981 959.066 25.0213 919.201 59.5041C904.968 51.0701 882.96 55.9899 873.735 59.5041C744.85 5.73719 632.898 60.8221 593.033 95.0854C464.147 52.9152 357.467 112.656 320.238 147.798Z" fill="#F2AEFA"/>
</svg>
