<svg width="1833" height="265" viewBox="0 0 1833 265" fill="none" xmlns="http://www.w3.org/2000/svg">
<g filter="url(#filter0_f_301_7)">
<path d="M326.238 152.798C168.096 140.674 46.8534 215.394 6 254.27L1827.6 260.2V173.224C1822.86 163.736 1784.77 161.803 1766.32 162.023C1718.88 46.0547 1550.85 49.1296 1472.77 65.1631C1456.95 50.9306 1407.61 47.8119 1384.91 48.0316C1341.09 3.42424 1238.51 14.8132 1192.07 26.2875C1074.25 -25.8981 965.066 30.0213 925.201 64.5041C910.968 56.0701 888.96 60.9899 879.735 64.5041C750.849 10.7372 638.898 65.8221 599.033 100.085C470.147 57.9152 363.467 117.656 326.238 152.798Z" fill="#D798F9"/>
<path d="M1386.78 50.0082C1386.17 49.3374 1385.54 48.6786 1384.91 48.0316M1384.91 48.0316C1341.09 3.42424 1238.51 14.8132 1192.07 26.2875C1074.25 -25.8981 965.066 30.0213 925.201 64.5041C910.968 56.0701 888.96 60.9899 879.735 64.5041C750.85 10.7372 638.898 65.8221 599.033 100.085C470.147 57.9152 363.467 117.656 326.238 152.798C168.096 140.674 46.8534 215.394 6 254.27L1827.6 260.2V173.224C1822.86 163.736 1784.77 161.803 1766.32 162.023C1718.88 46.0547 1550.85 49.1296 1472.77 65.1631C1456.95 50.9306 1407.61 47.8119 1384.91 48.0316Z" stroke="black"/>
</g>
<defs>
<filter id="filter0_f_301_7" x="0.753418" y="0.499023" width="1831.35" height="264.203" filterUnits="userSpaceOnUse" color-interpolation-filters="sRGB">
<feFlood flood-opacity="0" result="BackgroundImageFix"/>
<feBlend mode="normal" in="SourceGraphic" in2="BackgroundImageFix" result="shape"/>
<feGaussianBlur stdDeviation="2" result="effect1_foregroundBlur_301_7"/>
</filter>
</defs>
</svg>
