<svg width="1294" height="145" viewBox="0 0 1294 145" fill="none" xmlns="http://www.w3.org/2000/svg">
<path d="M484.395 84.0716C389.288 -13.9927 253.505 43.2115 197.502 84.0716C54.4505 69.9069 6.89613 118.122 1 144L1293 143.999V122.207C1264.7 49.2031 1158.07 55.9225 1108.29 68.4076C1001.39 -42.1874 835.151 7.79847 765.392 46.6158C627.055 -1.32688 520.42 51.6102 484.395 84.0716Z" fill="#F5C5FB"/>
<path d="M1 144C1.00008 144 0.999918 144 1 144ZM1 144C6.89613 118.122 54.4505 69.9069 197.502 84.0716C253.505 43.2115 389.288 -13.9927 484.395 84.0716C520.42 51.6102 627.055 -1.32688 765.392 46.6158C835.151 7.79847 1001.39 -42.1874 1108.29 68.4076C1158.07 55.9225 1264.7 49.2031 1293 122.207V143.999L1 144Z" stroke="black"/>
</svg>
